<?xml version="1.0" standalone="no"?>
<svg xmlns="http://www.w3.org/2000/svg" viewBox="0 0 79.6 29" width="79.6" height="29"><path fill="#ffffff" fill-rule="nonzero" d="M12.84 12.19L12.84 12.19Q12.84 14.62 11.06 16.00Q9.29 17.38 6.53 17.38L6.53 17.38Q4.34 17.38 2.30 16.18L2.30 16.18Q1.30 15.55 0.65 14.41Q0 13.27 0 11.81L0 11.81L3.02 11.66Q3.02 12.96 4.13 13.68Q5.23 14.40 6.58 14.40L6.58 14.40Q9.58 14.40 9.58 12.29L9.58 12.29Q9.58 10.56 7.54 10.25L7.54 10.25L4.75 9.96Q2.66 9.65 1.44 8.47Q0.22 7.30 0.22 5.09Q0.22 2.88 1.97 1.44Q3.72 0 6.40 0Q9.07 0 10.70 1.36Q12.34 2.71 12.34 4.85L12.34 4.85L9.36 4.99Q8.95 2.90 6.55 2.90L6.55 2.90Q5.09 2.90 4.26 3.53Q3.43 4.15 3.43 5.00Q3.43 5.86 4.03 6.35Q4.63 6.84 5.52 6.96L5.52 6.96L8.26 7.25Q12.84 7.87 12.84 12.19ZM32.59 12.19L32.59 12.19Q32.59 14.62 30.82 16.00Q29.04 17.38 26.28 17.38L26.28 17.38Q24.10 17.38 22.06 16.18L22.06 16.18Q21.05 15.55 20.40 14.41Q19.75 13.27 19.75 11.81L19.75 11.81L22.78 11.66Q22.78 12.96 23.88 13.68Q24.98 14.40 26.33 14.40L26.33 14.40Q29.33 14.40 29.33 12.29L29.33 12.29Q29.33 10.56 27.29 10.25L27.29 10.25L24.50 9.96Q22.42 9.65 21.19 8.47Q19.97 7.30 19.97 5.09Q19.97 2.88 21.72 1.44Q23.47 0 26.15 0Q28.82 0 30.46 1.36Q32.09 2.71 32.09 4.85L32.09 4.85L29.11 4.99Q28.70 2.90 26.30 2.90L26.30 2.90Q24.84 2.90 24.01 3.53Q23.18 4.15 23.18 5.00Q23.18 5.86 23.78 6.35Q24.38 6.84 25.27 6.96L25.27 6.96L28.01 7.25Q32.59 7.87 32.59 12.19Z" transform="translate(0, 5.812)"></path><line x1="41.592" y1="2%" x2="41.592" y2="98%" stroke="#ffffff" stroke-linecap="round"></line><g fill="#ffffff" color="#ffffff" transform="translate(50.592 0) scale(0.58)"><svg width="50.0" height="50.0" x="0.0" y="0.0" viewBox="0 0 50 50"><path d="M17.422,36.759c-0.195,0-0.392-0.057-0.564-0.175L1.167,25.825C0.895,25.639,0.732,25.33,0.732,25s0.163-0.638,0.435-0.825  l15.69-10.759c0.457-0.312,1.078-0.196,1.39,0.259c0.313,0.456,0.196,1.078-0.259,1.39L3.5,25l14.488,9.934  c0.456,0.313,0.572,0.936,0.259,1.391C18.054,36.606,17.741,36.759,17.422,36.759z"></path><path d="M32.578,36.759c-0.318,0-0.632-0.151-0.826-0.435c-0.312-0.455-0.196-1.078,0.26-1.391L46.499,25l-14.487-9.934  c-0.456-0.313-0.571-0.935-0.26-1.39c0.313-0.455,0.935-0.572,1.391-0.259l15.69,10.759c0.272,0.187,0.435,0.495,0.435,0.825  s-0.162,0.639-0.435,0.825l-15.69,10.759C32.97,36.702,32.772,36.759,32.578,36.759z"></path><path d="M20.557,41.697c-0.173,0.525-0.738,0.811-1.263,0.638l0,0c-0.524-0.173-0.81-0.737-0.637-1.263l10.787-32.77  c0.173-0.525,0.738-0.81,1.263-0.637l0,0c0.524,0.173,0.81,0.738,0.638,1.263L20.557,41.697z"></path></svg></g></svg>